<?xml version="1.0" encoding="utf-8"?>
<!-- Generator: Adobe Illustrator 19.2.1, SVG Export Plug-In . SVG Version: 6.00 Build 0)  -->
<svg version="1.1" id="Layer_1" xmlns="http://www.w3.org/2000/svg" xmlns:xlink="http://www.w3.org/1999/xlink" x="0px" y="0px"
	 viewBox="0 0 214.24745 81.19852" style="enable-background:new 0 0 214.24745 81.19852;" xml:space="preserve">
<style type="text/css">
	.st0{fill-rule:evenodd;clip-rule:evenodd;fill:#5E2F83;}
</style>
<g>
	<g>
		<path class="st0" d="M103.65696,49.91805v1.23197l0.88569-0.18576v1.03877l-0.88569,0.18576v1.63764
			c0,0.55133,0.12036,0.77424,0.48741,0.69548c0.17091-0.0327,0.25262-0.05796,0.36411-0.11145l0.00891,1.06253
			c-0.15306,0.09957-0.45474,0.21549-0.79356,0.28979c-0.40125,0.08322-0.73265-0.00893-0.93623-0.19469
			c-0.22737-0.2229-0.34329-0.63603-0.34329-1.27356v-1.85312l-0.52905,0.10698v-1.03728l0.52905-0.10848v-0.85152
			L103.65696,49.91805z"/>
		<path class="st0" d="M105.10471,52.34199c0-0.6702-0.00893-1.10415-0.0327-1.48458l1.05807-0.21993l0.04608,0.83517
			l0.0327-0.00744c0.20358-0.70737,0.68655-1.08333,1.07591-1.16211c0.11592-0.02526,0.16941-0.02973,0.26007-0.02526v1.3241
			c-0.09957,0-0.19469,0.00444-0.33438,0.02823c-0.45473,0.0951-0.76533,0.42651-0.84408,0.89016
			c-0.01635,0.0951-0.02528,0.19764-0.02528,0.31802v2.28704l-1.23639,0.2571V52.34199z"/>
		<path class="st0" d="M108.64138,49.57953c-0.39231,0.07878-0.64494-0.1902-0.64494-0.57957
			c0-0.39678,0.26006-0.75342,0.66129-0.83517c0.39678-0.07875,0.64497,0.17685,0.64941,0.57512
			c0,0.38784-0.25263,0.75639-0.65683,0.83517L108.64138,49.57953z M108.02914,54.78672v-4.52953l1.24085-0.24818v4.53402
			L108.02914,54.78672z"/>
		<path class="st0" d="M111.49139,48.3379v1.23197l0.88866-0.17238v1.03728l-0.88866,0.17388v1.6421
			c0,0.54687,0.12334,0.77424,0.49188,0.69993c0.16941-0.03417,0.25263-0.05796,0.36408-0.10848l0.00891,1.06403
			c-0.15306,0.0951-0.45473,0.21102-0.798,0.27642c-0.39828,0.07875-0.73265-0.01191-0.93623-0.20658
			c-0.23034-0.2229-0.34328-0.63752-0.34328-1.27802v-1.85312l-0.52905,0.10254v-1.03727l0.52905-0.09957v-0.85598
			L111.49139,48.3379z"/>
		<path class="st0" d="M113.53472,48.6228c-0.38934,0.07431-0.64494-0.19318-0.64494-0.58254
			c0-0.39678,0.26451-0.75342,0.66129-0.8322c0.40125-0.07431,0.64497,0.18725,0.65388,0.58403
			c0,0.38934-0.25263,0.74897-0.66129,0.82773L113.53472,48.6228z M112.92248,53.82702v-4.534l1.24086-0.23481v4.53252
			L112.92248,53.82702z"/>
		<path class="st0" d="M116.8402,53.1904c-1.16657,0.21399-2.06861-0.48893-2.06861-1.95272
			c0-1.46378,0.85152-2.55605,2.14291-2.79677c1.2156-0.22737,2.03442,0.5751,2.03442,1.94822
			c0,1.65104-1.03728,2.60212-2.1013,2.80126H116.8402z M116.87289,52.17242c0.49188-0.09064,0.79356-0.69102,0.79356-1.50984
			c0-0.66576-0.23034-1.30775-0.79356-1.20371c-0.587,0.10698-0.81884,0.83517-0.81884,1.5143
			c0,0.76979,0.28979,1.29882,0.80991,1.20372L116.87289,52.17242z"/>
		<path class="st0" d="M119.545,49.50447c0-0.56322-0.01635-1.03431-0.0327-1.44l1.08333-0.1902l0.05352,0.62118l0.02526-0.00447
			c0.16494-0.32694,0.56618-0.83517,1.23641-0.95109c0.81882-0.14565,1.43108,0.36408,1.43108,1.70006v2.68088l-1.24533,0.21846
			v-2.50997c0-0.58403-0.17684-0.95258-0.62861-0.87383c-0.34329,0.06242-0.54539,0.36855-0.63603,0.64199
			c-0.03419,0.09807-0.04161,0.23184-0.04161,0.35964v2.61398l-1.24532,0.22293V49.50447z"/>
		<path class="st0" d="M127.06096,45.52938v1.23197l0.89313-0.14862v1.03877l-0.89313,0.14415v1.6421
			c0,0.54687,0.12333,0.77871,0.49188,0.7163c0.17387-0.02973,0.25262-0.05352,0.36855-0.09957l0.00891,1.06254
			c-0.15306,0.09213-0.45921,0.19913-0.80247,0.2571c-0.40125,0.06687-0.7371-0.0327-0.94367-0.23183
			c-0.22737-0.23184-0.34328-0.64497-0.34328-1.28694v-1.85165l-0.53349,0.08619v-1.03877l0.53349-0.08619v-0.85299
			L127.06096,45.52938z"/>
		<path class="st0" d="M130.32082,50.86156c-1.17549,0.18576-2.07755-0.53796-2.07755-2.00174
			c0-1.46528,0.85301-2.54119,2.15186-2.74775c1.22006-0.19469,2.04333,0.62859,2.04333,1.99877
			c0,1.64952-1.04323,2.57684-2.11023,2.75072H130.32082z M130.35352,49.84359c0.49187-0.07875,0.79355-0.67467,0.79355-1.48904
			c0-0.66576-0.22737-1.31517-0.79355-1.22451c-0.59148,0.0951-0.81885,0.81435-0.81885,1.49349
			c0,0.76979,0.28532,1.30628,0.80991,1.22453L130.35352,49.84359z"/>
		<polygon class="st0" points="135.83429,43.64728 135.83429,46.05918 137.89397,45.74859 137.89397,43.34116 139.14375,43.15093 
			139.14375,49.3969 137.89397,49.58712 137.89397,46.98056 135.83429,47.29115 135.83429,49.89325 134.58449,50.08347 
			134.58449,43.83304 		"/>
		<path class="st0" d="M141.00877,47.32085c0.04161,0.57807,0.54987,0.78612,1.13388,0.7029
			c0.42947-0.05796,0.77277-0.17385,1.11308-0.3522l0.16493,0.93476c-0.41312,0.25263-0.91391,0.4146-1.45634,0.49335
			c-1.36421,0.19023-2.14738-0.58848-2.14738-2.00618c0-1.15022,0.642-2.51147,2.03148-2.70613
			c1.29883-0.18132,1.79071,0.89016,1.79071,2.00618c0,0.24372-0.02379,0.45921-0.04012,0.56324L141.00877,47.32085z
			 M142.48149,46.14981c0-0.33882-0.13226-0.89757-0.69846-0.81882c-0.53351,0.07878-0.74899,0.65388-0.78168,1.02986
			L142.48149,46.14981z"/>
		<polygon class="st0" points="144.22301,42.10429 145.47575,41.93488 145.47575,48.52414 144.22301,48.69355 		"/>
		<path class="st0" d="M146.31955,45.39639c0-0.59147-0.01634-1.09079-0.0327-1.51283l1.08336-0.14118l0.05795,0.62118h0.01784
			c0.2972-0.51417,0.76085-0.8322,1.34341-0.90651c0.88123-0.11592,1.67183,0.64497,1.67183,2.0924
			c0,1.64657-0.93179,2.54861-1.82936,2.66006c-0.48297,0.06687-0.86342-0.10698-1.0462-0.38043h-0.01633v2.25437l-1.2498,0.16199
			V45.39639z M147.56935,46.30288c0,0.11147,0.00891,0.20211,0.02525,0.29426c0.08173,0.36705,0.37152,0.61523,0.73114,0.57063
			c0.54689-0.07132,0.86935-0.62118,0.86935-1.39095c0-0.72372-0.28979-1.23197-0.85152-1.16211
			c-0.35219,0.04605-0.66725,0.38488-0.74898,0.81138c-0.01634,0.07877-0.02525,0.16941-0.02525,0.2556V46.30288z"/>
		<path class="st0" d="M152.62823,41.36808l1.24533-0.14413v2.7626l0.01634-0.00447
			c0.12334-0.25263,0.25264-0.49188,0.38489-0.72816l1.25276-2.2202l1.55147-0.18279l-1.83681,2.87555l1.92746,3.36298
			l-1.45934,0.16941l-1.37016-2.5397l-0.46661,0.71034v2.04038l-1.24533,0.14415V41.36808z"/>
		<path class="st0" d="M158.11809,41.89758c-0.39827,0.04608-0.65387-0.24372-0.65387-0.63306
			c0-0.39678,0.26451-0.73265,0.6702-0.77723c0.40422-0.04605,0.64943,0.23481,0.65685,0.63308
			c0,0.38787-0.25262,0.73113-0.66576,0.77721H158.11809z M157.4969,47.05573v-4.534l1.25275-0.13671v4.52956L157.4969,47.05573z"/>
		<path class="st0" d="M163.51088,39.82868v5.23692c0,0.5097,0.01636,1.04322,0.0327,1.34934l-1.11606,0.11592l-0.05051-0.65387
			l-0.02379,0.00447c-0.24817,0.52458-0.74452,0.83517-1.26613,0.88866c-0.96002,0.09957-1.72832-0.74004-1.72832-2.14737
			c-0.00891-1.52174,0.84261-2.49809,1.81154-2.59765c0.50377-0.05349,0.88422,0.11295,1.067,0.40125l0.01636-0.00297v-2.46541
			L163.51088,39.82868z M162.25368,43.94508c0-0.08619,0-0.17832-0.01636-0.26004c-0.07431-0.37301-0.34775-0.64943-0.73709-0.60929
			c-0.57809,0.05796-0.86786,0.66279-0.86786,1.37759c0,0.76236,0.33882,1.20818,0.86043,1.15467
			c0.36407-0.03714,0.6613-0.34773,0.7356-0.75342c0.01634-0.09512,0.02528-0.20658,0.02528-0.31803V43.94508z"/>
		<path class="st0" d="M164.33031,45.10317c0.23181,0.13673,0.71182,0.26453,1.08333,0.23183
			c0.38043-0.03714,0.53796-0.1902,0.53796-0.42204c0-0.23183-0.12334-0.33882-0.58699-0.46365
			c-0.8441-0.23481-1.16656-0.7148-1.15915-1.24088c0-0.85598,0.64645-1.55444,1.64658-1.64954
			c0.47258-0.04605,0.88571,0.04458,1.13387,0.1605l-0.21547,0.98526c-0.1813-0.08767-0.53795-0.19912-0.87679-0.17088
			c-0.30612,0.02971-0.48001,0.18723-0.48001,0.41016c0,0.21102,0.15753,0.318,0.65388,0.45474
			c0.76979,0.2244,1.08334,0.62859,1.09225,1.28693c0,0.85152-0.58701,1.53065-1.74614,1.6421
			c-0.52904,0.04905-1.00011-0.04605-1.30624-0.20211L164.33031,45.10317z"/>
		<path class="st0" d="M173.98473,45.18596c-0.38937,0.18131-1.12497,0.44732-1.86206,0.50825
			c-1.02092,0.08767-1.75803-0.13971-2.27072-0.6405c-0.50378-0.50526-0.78613-1.29884-0.78613-2.21723
			c0.00893-2.07605,1.3568-3.37486,3.18912-3.52792c0.72075-0.05796,1.27504,0.04902,1.54848,0.16494l-0.26601,1.1621
			c-0.30612-0.1278-0.67764-0.21102-1.2899-0.15753c-1.05513,0.08769-1.85759,0.82329-1.85759,2.17711
			c0,1.29437,0.72818,1.98539,1.76694,1.89771c0.28087-0.02526,0.5127-0.07875,0.61226-0.13671V43.101l-0.8649,0.07431v-1.10415
			l2.08052-0.17387V45.18596z"/>
		<path class="st0" d="M174.76239,42.37742c0-0.6702-0.00894-1.10415-0.0327-1.49349l1.07889-0.07877l0.05051,0.83963
			l0.0327-0.00297c0.20656-0.68358,0.6955-0.99714,1.09227-1.03133c0.11592-0.00742,0.17387-0.00297,0.26451,0.00891v1.32857
			c-0.09956-0.01338-0.19914-0.02528-0.33882-0.01338c-0.46365,0.0327-0.7787,0.32694-0.86043,0.77721
			c-0.01634,0.0951-0.02525,0.19914-0.02525,0.3195v2.28707l-1.26167,0.09957V42.37742z"/>
		<path class="st0" d="M179.54858,45.16501c-1.18739,0.08322-2.09834-0.72372-2.09834-2.1875
			c0-1.46526,0.86043-2.46092,2.17265-2.55305c1.23639-0.08175,2.06413,0.81585,2.06413,2.18897
			c0,1.64657-1.05511,2.47729-2.13103,2.55158H179.54858z M179.58128,44.15596c0.49634-0.03714,0.80246-0.60333,0.80246-1.41918
			c0-0.66578-0.23183-1.33598-0.80246-1.29884c-0.59592,0.04161-0.82776,0.74453-0.82776,1.4192
			c0,0.76979,0.28978,1.33598,0.81882,1.29882H179.58128z"/>
		<path class="st0" d="M183.08067,40.29677l0.33139,1.84423c0.07431,0.45918,0.15602,0.95553,0.2229,1.46972h0.02528
			c0.07428-0.51419,0.19763-1.04322,0.28976-1.48904l0.42949-1.8992l0.99716-0.05796l0.40569,1.78328
			c0.11592,0.5127,0.2229,1.00458,0.29721,1.52174h0.01634c0.05797-0.5127,0.14119-1.03877,0.24075-1.56335l0.33882-1.81598
			l1.2364-0.07431l-1.24532,4.60386l-1.17401,0.06984l-0.38043-1.56335c-0.10847-0.43839-0.18279-0.83963-0.26451-1.40285h-0.01785
			c-0.07428,0.57066-0.15602,1.00161-0.26004,1.42811l-0.40572,1.61684l-1.18289,0.0654l-1.18739-4.46268L183.08067,40.29677z"/>
		<path class="st0" d="M207.121,7.36303V6.18757h0.33139c0.33141,0,0.49634,0.14415,0.55876,0.47553
			c0.08322,0.31059,0.14415,0.57957,0.24817,0.69993h1.11604c-0.06093-0.09955-0.12335-0.30612-0.22736-0.78315
			c-0.10254-0.4592-0.30911-0.72372-0.66132-0.83072V5.71201c0.43394-0.12483,0.74454-0.41313,0.74454-0.74453
			c0-0.33138-0.14415-0.57957-0.3522-0.7029c-0.24818-0.16644-0.55728-0.26898-1.3226-0.26898
			c-0.68361,0-1.24089,0.08172-1.46825,0.12333v3.24409H207.121z M207.1418,4.71485l0.3522-0.01635
			c0.35219,0,0.57956,0.14415,0.57956,0.41313c0,0.24819-0.22737,0.39381-0.62117,0.39381h-0.31059V4.71485z M204.99147,5.71201
			c0-1.48904,1.09671-2.68831,2.54414-2.68831h0.02081c1.50983,0,2.60507,1.19927,2.60507,2.6675
			c0,1.48907-1.09525,2.70466-2.58429,2.68831C206.08818,8.37951,204.99147,7.18026,204.99147,5.71201 M211.23743,5.6912
			c0-1.96457-1.59308-3.55765-3.63939-3.55765h-0.02083c-2.04779,0-3.68248,1.59308-3.68248,3.55765
			c0,1.98095,1.63469,3.57847,3.68248,3.57847C209.64435,9.26967,211.23743,7.67214,211.23743,5.6912"/>
		<path class="st0" d="M45.79585,58.89898c3.78501-0.68805,7.10341-2.81312,9.60894-6.09735
			c0.40569-0.52608,0.30315-1.27802-0.23034-1.66737l-0.13374-0.09957c-1.69562,2.16818-4.4508,4.00792-6.98603,4.46713
			c-3.23814,0.58848-5.90714-1.22007-6.34107-3.75976c-0.05349-0.33437,0.00446-0.9719,0.62416-1.46825
			c0.60483-0.48741,3.20248-1.19925,8.86143-3.06575c3.18911-1.04621,4.68559-2.25437,4.68559-4.27246
			c0-5.34393-4.55332-8.59099-10.20782-7.5656c-3.30205,0.60036-6.23407,2.44904-8.33538,5.48064
			c-1.87393,2.71802-2.87109,5.71692-2.87109,8.74106C34.47049,55.92833,39.1531,60.10568,45.79585,58.89898 M45.87461,38.51453
			c2.45795-0.4473,4.07035,0.87677,4.07035,4.25611c0,0.71183-0.22737,1.22006-1.92743,1.96904
			c-1.59308,0.69846-3.11481,1.33598-5.0259,2.10875c-1.83976,0.74453-1.99282,1.28693-1.99282,1.28693
			C40.57231,43.95356,42.16092,39.18773,45.87461,38.51453 M91.51634,45.92707c0,0-1.11605-0.46367-1.1205-3.42985V23.95846
			c0-0.91542-0.85301-1.3865-1.72088-0.95555l-6.05574,3.5443c0,0,1.41473-0.07431,1.41473,2.6021v14.65564
			c0.00447,3.56956-1.06403,4.09414-1.06403,4.09414L91.51634,45.92707z M18.94698,68.00266c0,0-1.65103-0.04161-1.65103-3.93364
			V56.9879l3.56212-1.39839c6.36931-2.49512,14.3614-9.40239,14.3614-18.08549c0-5.80758-3.76868-9.84375-13.74468-5.93538
			l-13.0596,5.11654h0.00446c0.0862,0.00891,1.59605,0.18279,1.59605,5.09724v25.14434c0,3.94699-1.73722,5.25327-1.73722,5.25327
			L18.94698,68.00266z M17.31677,40.47466c0.00446-2.61401-0.50824-3.79691-1.89474-3.77314
			c0.45622-0.21399,4.534-1.81895,5.24583-2.09684c4.18627-1.63766,6.8077,0.88569,6.80026,6.03195
			c-0.00891,5.5713-2.24248,10.39062-7.54033,12.4622l-2.62737,1.02986L17.31677,40.47466z M64.1741,41.23108
			c0.01338-6.93698,3.27232-8.80645,4.87284-9.17797c1.70451-0.3968,3.60668,0.24369,4.71976,1.05065v12.05799
			c-1.15766,1.71641-2.30341,3.13858-4.26057,3.59332C65.44915,49.70318,64.17113,44.49152,64.1741,41.23108 M150.47772,36.1279
			c3.16385-0.36855,5.68275-2.17709,7.47346-4.65436l0.0208-0.02528v0.13376c0,1.4712,1.10565,3.49523,3.75235,3.18019
			c2.64371-0.31506,4.09114-2.72546,4.09114-2.72546s-1.4073-0.26156-1.4073-2.92906V11.90047
			c0-0.91097-0.85597-1.46825-1.73276-1.13834l-6.11816,2.85028c0,0,1.43109,0.08322,1.42365,2.73883v11.86332
			c-1.04321,1.43852-2.9335,3.1267-4.7034,3.39568c-1.86948,0.28533-3.11482-1.23197-3.11482-3.65278V13.59162
			c0.00447-0.90503-0.84409-1.46825-1.72086-1.13684l-6.11369,2.85029c0,0,1.42365,0.08619,1.42365,2.73734v11.99558
			C143.74286,33.90176,146.2038,36.63615,150.47772,36.1279 M98.92886,37.97211c0.00893-3.60667,2.06416-5.29932,5.00955-6.20433
			c1.44743-0.44285,2.12954-0.82328,2.39851-1.53065l-0.01635,6.44063v0.21102c-0.00444,1.33598-0.72816,2.58131-1.90661,3.20098
			c-0.62862,0.33141-1.33154,0.53796-2.07308,0.65834C100.24404,41.09436,98.92441,40.06451,98.92886,37.97211 M67.49547,52.56088
			c2.32124-0.53796,4.60087-1.98092,6.35445-4.37944c0.30167,1.29437,1.43108,2.56346,3.66466,2.04335
			c2.64668-0.61673,4.09114-3.19357,4.09114-3.19357s-1.39838-0.0951-1.39838-2.7641V15.92475
			c0-0.90651-0.85598-1.36866-1.73276-0.93474l-6.11816,3.54874c0,0,1.4192-0.08172,1.41029,2.57389v8.99666
			c-1.82342-1.21263-3.95443-1.63913-6.22961-1.10859c-4.14466,0.96743-10.04287,5.78676-10.04287,14.53526
			C57.49421,49.9142,61.17223,54.0336,67.49547,52.56088 M203.55132,28.90559c0.48-0.43839,0.54242-1.17548,0.12036-1.67628
			l-0.1902-0.22737c-1.91556,1.70451-4.79407,2.78341-7.27136,2.5397c-3.16087-0.31059-5.45241-2.8696-5.50591-5.54306
			c-0.00891-0.34624,0.13228-0.97188,0.79356-1.29882c0.64645-0.32247,3.21439-0.31356,8.86147-0.6078
			c3.18019-0.16496,4.7688-0.96002,5.04967-2.98552c0.74007-5.36622-3.13858-9.89575-8.6653-10.44114
			c-3.2218-0.31803-6.27121,0.71925-8.68608,3.18169c-2.16817,2.20382-3.53387,4.94266-3.95445,7.9787
			c-0.87827,6.36188,2.99445,11.85887,9.48859,12.50084C197.27264,32.68616,200.7144,31.48986,203.55132,28.90559 M99.7477,44.51528
			c2.75516-0.45918,4.59196-1.51281,6.75122-3.73894c0.39231,1.21709,1.51727,2.34947,3.59035,2.00174
			c2.64371-0.43839,4.09114-2.92013,4.09114-2.92013s-1.42365-0.19023-1.42365-2.85772V26.48478
			c0-3.69733-2.50256-7.26689-8.58208-6.25338c-7.57452,1.26167-10.20931,5.04669-10.21375,7.32485
			c-0.00447,1.58414,1.37312,2.46983,2.80421,2.23355c1.73423-0.28977,2.94985-2.20088,3.48781-3.86674
			c0.62415-1.87394,1.29437-2.63185,3.15641-2.94094c2.64223-0.43839,2.93649,2.00618,2.93203,4.23976l-0.00447,1.25721
			c-4.72272,1.57526-14.08795,3.21439-14.08795,10.97763C92.24897,43.98626,96.09195,45.12458,99.7477,44.51528 M196.49544,11.87966
			c2.40298,0.23481,3.75085,2.01067,3.28423,5.40189c-0.09956,0.71628-0.38489,1.16655-2.10577,1.44296
			c-1.61684,0.26154-3.15196,0.47258-5.07492,0.72075c-1.85759,0.23481-2.07605,0.7356-2.07605,0.7356
			C190.69234,15.86234,192.86795,11.52301,196.49544,11.87966 M86.90506,22.07114c2.07159-0.47553,3.70625-2.59319,3.70625-4.79853
			c0-2.16222-1.63466-3.56954-3.71071-3.08954c-2.03147,0.47258-3.70627,2.63927-3.70627,4.80298
			C83.18988,21.19436,84.8736,22.54373,86.90506,22.07114 M175.83308,32.77235c0,0-1.11603-0.63753-1.11603-3.57847V18.76612
			c0.42204-1.17845,1.79517-3.45364,3.29611-3.54874c1.29881-0.08619,2.42824,0.75344,3.80582,0.66576
			c1.60495-0.10254,3.21883-1.64657,3.21883-3.27232c0-1.88582-1.10117-3.56953-3.467-3.41647
			c-3.44917,0.2244-5.74515,3.68992-6.82553,5.93238l0.00447-0.9273l-0.00745,0.00447l0.00298-3.14008
			c0-0.90501-0.85599-1.51283-1.73276-1.2275l-6.11816,2.5189c0,0,1.43108,0.15753,1.42366,2.81312v14.5219
			c-0.00446,3.54132-1.10414,3.88459-1.10414,3.88459L175.83308,32.77235z M129.13329,38.9648
			c7.01128-1.22006,12.04164-5.58018,12.56175-12.5454c0.54242-7.27583-4.92931-8.85253-10.22862-10.05627l-2.54417-0.57063
			c-2.75962-0.587-5.83578-1.29884-5.59209-4.55779c0.20657-2.78044,3.22627-4.35271,5.44794-4.73613
			c3.93661-0.68358,7.36647,0.44138,8.96698,4.16844c0.28532,0.66576,0.98079,1.0551,1.6956,0.92285l0.62564-0.11592
			l0.00296-10.6596c-0.31802,0.54986-1.67035,1.68374-2.7834,2.01809c-2.63036,0.80694-3.90392,0.06687-8.89713,0.93177
			c-5.46429,0.94664-10.54368,4.73611-11.01921,11.07273c-0.58701,7.87619,7.01574,9.26566,12.75198,10.56003
			c2.75517,0.58701,5.84174,1.56779,5.59656,4.87729c-0.21104,2.79976-2.64224,5.01699-6.3084,5.6545
			c-4.42999,0.76979-9.3979-1.32854-11.17527-5.60545c-0.15009-0.36707-0.53796-0.57512-0.92283-0.48744l-0.31803,0.06984v11.96733
			C119.81858,39.2219,123.34206,39.9694,129.13329,38.9648"/>
		<path class="st0" d="M59.26844,60.487c0.3195-0.16644,0.96-0.4146,1.57671-0.58698
			c0.74453-0.21102,1.19927-0.25263,1.59158-0.09513c0.37301,0.12336,0.63753,0.47556,0.63753,1.05066
			c0,0.54539-0.28086,1.1324-0.88122,1.57079v0.02079c0.61671,0.01338,1.07591,0.43097,1.07591,1.23641
			c0,0.57215-0.22737,1.08038-0.56322,1.48163c-0.39233,0.47108-1.04621,0.86489-2.11766,1.16657
			c-0.59889,0.16941-1.04621,0.24816-1.31963,0.28086V60.487z M60.47663,62.5259l0.40122-0.11592
			c0.64496-0.18129,0.98081-0.58254,0.98081-1.04619c0-0.47108-0.31059-0.63308-0.86043-0.47555
			c-0.27345,0.07431-0.42651,0.13671-0.52161,0.19022V62.5259z M60.47663,65.29741c0.12036-0.00891,0.26451-0.04605,0.47106-0.10698
			c0.55134-0.15306,1.03877-0.54243,1.03877-1.20074c0-0.63158-0.48743-0.74453-1.09226-0.57066l-0.41757,0.11592V65.29741z"/>
		<path class="st0" d="M67.16483,63.34488c0,0.42648,0.01336,0.83961,0.06241,1.07591l-1.09673,0.30166l-0.07429-0.43392
			l-0.02379,0.00744c-0.2571,0.43095-0.65832,0.73707-1.12199,0.86489c-0.79356,0.21547-1.26465-0.32249-1.26465-1.04174
			c0-1.17995,0.91394-1.98539,2.29895-2.36732v-0.05349c0-0.24372-0.11145-0.55431-0.71478-0.38787
			c-0.39828,0.10699-0.82329,0.38043-1.08038,0.62859l-0.2229-0.83664c0.27342-0.25116,0.80694-0.63159,1.52172-0.82626
			c1.30775-0.35964,1.71643,0.41757,1.71643,1.48457V63.34488z M65.98638,62.62114
			c-0.64052,0.17834-1.13687,0.48744-1.13687,1.02539c0,0.3641,0.20658,0.48,0.47853,0.40571
			c0.29871-0.08322,0.55431-0.38045,0.63306-0.69104c0.01635-0.07875,0.02528-0.16494,0.02528-0.24816V62.62114z"/>
		<polygon class="st0" points="67.96776,57.63254 69.18782,57.30116 69.18782,63.89041 67.96776,64.22179 		"/>
		<path class="st0" d="M73.29114,61.71035c0,0.42651,0.01635,0.83666,0.06687,1.07592l-1.10564,0.28977l-0.06984-0.43392
			l-0.02526,0.00743c-0.2556,0.42649-0.65685,0.72816-1.12496,0.85299c-0.79356,0.21102-1.26909-0.33138-1.26909-1.0551
			c0-1.17548,0.91839-1.97797,2.30786-2.34206v-0.05646c0-0.24075-0.11591-0.55431-0.71628-0.39381
			c-0.40125,0.10402-0.82626,0.37597-1.08335,0.62118l-0.22737-0.83963c0.27345-0.24818,0.8114-0.62564,1.52618-0.8114
			c1.31222-0.34773,1.72088,0.43394,1.72088,1.50092V61.71035z M72.10825,60.97473
			c-0.64053,0.16943-1.13687,0.47556-1.13687,1.01351c0,0.36408,0.20657,0.48447,0.47852,0.41016
			c0.29871-0.07875,0.55431-0.37746,0.63753-0.68805c0.01188-0.07728,0.02082-0.1605,0.02082-0.24372V60.97473z"/>
		<path class="st0" d="M74.08964,59.51049c0-0.56619-0.01634-1.03431-0.03269-1.43999l1.06253-0.26898l0.05796,0.61226
			l0.0208-0.00297c0.16199-0.34032,0.55877-0.87381,1.21561-1.04322c0.80694-0.20658,1.41027,0.25707,1.41027,1.59306v2.6794
			l-1.22304,0.31059v-2.50999c0-0.58401-0.17832-0.93473-0.62118-0.82328c-0.33435,0.08619-0.53796,0.40571-0.62415,0.69104
			c-0.03417,0.09807-0.04161,0.23034-0.04161,0.35962v2.614l-1.22451,0.31356V59.51049z"/>
		<path class="st0" d="M81.60975,60.57348c-0.21548,0.17388-0.62861,0.36855-1.09673,0.48447
			c-1.27356,0.31802-2.08349-0.37746-2.08349-1.79517c0-1.31519,0.78912-2.59765,2.2529-2.96176
			c0.32397-0.08322,0.67913-0.10848,0.93623-0.05794L81.424,57.33833c-0.14565-0.04014-0.35964-0.04905-0.68361,0.02971
			c-0.64496,0.1605-1.06253,0.79358-1.05362,1.52621c0,0.8307,0.48,1.14576,1.07888,1.00161
			c0.28979-0.07578,0.5127-0.18723,0.69995-0.32694L81.60975,60.57348z"/>
		<path class="st0" d="M82.98778,58.53819c0.03714,0.5751,0.53648,0.73263,1.11158,0.59145
			c0.41759-0.10254,0.75789-0.25263,1.0878-0.45918l0.16199,0.91392c-0.40125,0.29424-0.89313,0.50526-1.42664,0.63308
			c-1.34042,0.32692-2.10575-0.37598-2.10575-1.79072c0-1.15022,0.62859-2.57239,1.99281-2.90824
			c1.27505-0.31059,1.75804,0.71181,1.75804,1.83233c0,0.24519-0.02378,0.45918-0.04013,0.56766L82.98778,58.53819z
			 M84.43076,57.223c0-0.34327-0.12782-0.88569-0.68658-0.74898c-0.52607,0.12483-0.73709,0.72372-0.76532,1.10417L84.43076,57.223z
			"/>
		<path class="st0" d="M89.96577,52.10258v5.23692c0,0.50825,0.01635,1.04174,0.0327,1.34342l-1.09226,0.2571l-0.04607-0.64496
			l-0.02379,0.00297c-0.2437,0.55877-0.72816,0.93176-1.23641,1.05065c-0.93918,0.2244-1.69263-0.51714-1.69263-1.92743
			c-0.00744-1.51727,0.82329-2.60212,1.76991-2.82502c0.49338-0.11592,0.86489,0,1.04324,0.26451l0.01635-0.00444v-2.46392
			L89.96577,52.10258z M88.7368,56.37504c0-0.08322,0-0.17385-0.01635-0.25707c-0.06986-0.35964-0.33884-0.60336-0.71927-0.5127
			c-0.56769,0.13227-0.84855,0.77424-0.84855,1.48607c0,0.76086,0.33141,1.16508,0.83964,1.04619
			c0.35517-0.08322,0.64941-0.43095,0.71925-0.84855c0.01635-0.0951,0.02528-0.21102,0.02528-0.32247V56.37504z"/>
		<path class="st0" d="M92.31067,58.14954V51.9036l1.44296-0.32249l1.13834,2.03147c0.32247,0.58701,0.6405,1.29437,0.88866,1.94378
			l0.02082-0.00444c-0.07431-0.81141-0.09957-1.64657-0.09957-2.59321v-1.81598l1.13387-0.25707v6.24594l-1.29437,0.29424
			l-1.17104-2.14737c-0.32247-0.60335-0.68655-1.31963-0.94662-1.99282l-0.03417,0.00743
			c0.0416,0.82329,0.05795,1.70006,0.05795,2.72248v1.87691L92.31067,58.14954z"/>
		<path class="st0" d="M101.45222,54.68745c0,0.59147,0.01633,1.07147,0.03268,1.44746l-1.07145,0.23182l-0.05796-0.62862
			l-0.02379,0.00447c-0.15306,0.31356-0.53052,0.85598-1.24532,1.00904c-0.81138,0.17388-1.39394-0.27345-1.39394-1.6748v-2.66008
			l1.23196-0.26451v2.43568c0,0.66279,0.18723,1.01796,0.62563,0.92283c0.34328-0.06984,0.54539-0.38488,0.6197-0.62118
			c0.0327-0.09063,0.04608-0.19764,0.04608-0.318v-2.69722l1.23641-0.26453V54.68745z"/>
		<path class="st0" d="M26.98799,76.65606c-0.21103,0.19469-0.71184,0.51717-1.34788,0.74007
			c-1.82489,0.64497-2.76855-0.38043-2.76855-2.15925c0-2.12212,1.28693-3.75085,2.88744-4.31406
			c0.61672-0.21548,1.08781-0.23183,1.29883-0.18576l-0.24817,1.20816c-0.23481-0.03714-0.57511-0.02971-1.00459,0.12335
			c-0.93919,0.32694-1.6748,1.26614-1.6748,2.65562c0,1.24086,0.62415,1.80854,1.68372,1.43553
			c0.36705-0.1278,0.76086-0.3522,1.00012-0.55428L26.98799,76.65606z"/>
		<path class="st0" d="M29.34206,76.1273c-1.12198,0.38342-1.98539-0.1917-1.98539-1.65548s0.81436-2.68088,2.05523-3.10588
			c1.17548-0.40125,1.96013,0.28532,1.96013,1.65845c0,1.64658-1.00012,2.75072-2.02254,3.09847L29.34206,76.1273z
			 M29.37476,75.10488c0.47108-0.16197,0.76086-0.80693,0.76086-1.62128c0-0.66576-0.21845-1.27802-0.76086-1.09226
			c-0.5662,0.19467-0.78614,0.95553-0.78614,1.63022c0,0.7683,0.27345,1.26167,0.77722,1.0878L29.37476,75.10488z"/>
		<path class="st0" d="M31.95592,72.04388c0-0.56322-0.01635-1.03431-0.0327-1.43553l1.01647-0.33437l0.05053,0.60336
			l0.02081-0.00891c0.16941-0.35072,0.51268-0.89315,1.17102-1.10714c0.50378-0.16644,0.88867,0.01188,1.05362,0.42947
			l0.01635-0.00446c0.15009-0.29275,0.31504-0.53349,0.50527-0.72372c0.21547-0.21102,0.45028-0.37152,0.7356-0.46662
			c0.74155-0.24519,1.29883,0.18131,1.29883,1.53362v2.67197l-1.16507,0.3849v-2.45648c0-0.65834-0.18279-0.97634-0.56769-0.85301
			c-0.28533,0.09511-0.47554,0.38193-0.56173,0.67914c-0.02081,0.11145-0.03716,0.25263-0.03716,0.36408v2.65117l-1.16656,0.3849
			v-2.53525c0-0.56769-0.17388-0.8976-0.56323-0.7698c-0.30612,0.09957-0.48743,0.43842-0.55876,0.68211
			c-0.04161,0.12483-0.04904,0.2571-0.04904,0.38046v2.63183l-1.16656,0.3834V72.04388z"/>
		<path class="st0" d="M38.59063,69.93053c0-0.59145-0.01635-1.0878-0.02823-1.50983l1.04173-0.33585l0.0535,0.61227
			l0.01635-0.00446c0.28532-0.56174,0.72817-0.96297,1.29139-1.14576c0.84706-0.2675,1.60496,0.34773,1.60496,1.79517
			c0,1.64657-0.89461,2.71357-1.75357,2.99146c-0.46812,0.14861-0.8322,0.04161-1.00607-0.19913l-0.01634,0.00446v2.25437
			l-1.20373,0.3849V69.93053z M39.79436,70.61263c0,0.10701,0.00891,0.19913,0.02526,0.28532
			c0.07876,0.35519,0.35517,0.55431,0.70291,0.44286c0.52161-0.16494,0.83071-0.77423,0.83071-1.54253
			c0-0.72372-0.27641-1.18291-0.81436-1.01054c-0.34329,0.10847-0.6405,0.50082-0.71926,0.94367
			c-0.01635,0.07875-0.02526,0.17385-0.02526,0.26004V70.61263z"/>
		<polygon class="st0" points="43.16967,64.89201 44.37338,64.51159 44.37338,71.10084 43.16967,71.48127 		"/>
		<path class="st0" d="M46.11448,68.74361c0.03716,0.57066,0.53052,0.69846,1.09671,0.5246
			c0.41313-0.1278,0.74453-0.29723,1.07147-0.5246l0.15751,0.90503c-0.39825,0.3195-0.88122,0.55875-1.4073,0.72075
			c-1.31517,0.40421-2.07158-0.24966-2.07158-1.66739c0-1.1502,0.61969-2.61101,1.96013-3.02414
			c1.25721-0.38937,1.73276,0.60333,1.73276,1.72533c0,0.23925-0.02378,0.46365-0.04161,0.57066L46.11448,68.74361z
			 M47.53368,67.34076c0-0.34326-0.12485-0.87678-0.67469-0.70737c-0.51714,0.15753-0.72371,0.7698-0.75195,1.15022
			L47.53368,67.34076z"/>
		<path class="st0" d="M50.57804,63.4318v1.23197l0.86934-0.26453V65.438l-0.86934,0.26453v1.63763
			c0,0.54687,0.12037,0.76236,0.47553,0.65388c0.16941-0.04905,0.24818-0.08173,0.35964-0.14415l0.00891,1.06254
			c-0.15306,0.107-0.4473,0.25262-0.78168,0.35516c-0.38934,0.12038-0.71628,0.05796-0.91394-0.11145
			c-0.2244-0.20211-0.33138-0.60333-0.33138-1.24383v-1.85314l-0.51717,0.15603v-1.03728l0.51717-0.15752v-0.85299L50.57804,63.4318
			z"/>
		<path class="st0" d="M52.87432,66.69061c0.04161,0.57213,0.53349,0.7044,1.0997,0.53796
			c0.41313-0.12333,0.74898-0.28532,1.07592-0.5127l0.15751,0.9065c-0.39825,0.31356-0.88122,0.54984-1.4073,0.70737
			c-1.3241,0.38787-2.08051-0.27789-2.08051-1.69559c0-1.15022,0.6212-2.60212,1.96906-3.0004
			c1.25721-0.37152,1.73276,0.62565,1.73276,1.74614c0,0.24372-0.02082,0.46368-0.03717,0.57066L52.87432,66.69061z
			 M54.30096,65.30557c0-0.34326-0.12782-0.88122-0.67766-0.71628c-0.51714,0.15306-0.72519,0.76236-0.75789,1.14278
			L54.30096,65.30557z"/>
		<path class="st0" d="M55.37227,68.87958c0.25707-0.89757,0.47106-1.92297,0.58253-2.79974l1.23789-0.45623
			c-0.26451,1.02686-0.62564,2.1013-1.00607,2.93797L55.37227,68.87958z"/>
	</g>
</g>
</svg>
